# xmcd CD database file
#
# Track frame offsets:
#	150
#	12124
#	24619
#	50586
#	68662
#	81695
#	103171
#	118223
#	138878
#	154829
#	171492
#	210438
#	227281
#	242233
#	258719
#
# Disc length: 3772 seconds
#
# Revision: 0
# Processed by: cddbd v1.5.2PL0 Copyright (c) Steve Scherf et al.
# Submitted via: CDex 1.51
#
DISCID=d20eba0f
DTITLE=AJ and The Red Hots - Hot Pepper Blues Jam
DYEAR=2001
DGENRE=Blues
TTITLE0=Snatch It Back And Hold It
TTITLE1=Sweets For My Sweet
TTITLE2=9 Below Zero
TTITLE3=Brookfield Stiffly
TTITLE4=Drive A Hard Bargain
TTITLE5=Paint My Mailbox Blue
TTITLE6=Born In Chicago
TTITLE7=Little Red Rooster
TTITLE8=Good Lovin
TTITLE9=Hommange to James Cotton
TTITLE10=I Love My Man
TTITLE11=My Babe
TTITLE12=Down the Road Apiece
TTITLE13=Mess Around
TTITLE14=Skin Off My Tattoos
EXTD=YEAR: 2001
EXTT0=
EXTT1=
EXTT2=
EXTT3=
EXTT4=
EXTT5=
EXTT6=
EXTT7=
EXTT8=
EXTT9=
EXTT10=
EXTT11=
EXTT12=
EXTT13=
EXTT14=
PLAYORDER=
